<?xml version="1.0" encoding="UTF-8"?>
<svg version="1.1" xmlns="http://www.w3.org/2000/svg" width="247" height="289">
<path d="M0 0 C4.38051389 2.37277836 6.27511943 5.37005741 8 10 C8.5668194 14.53455517 8.31803932 16.45336991 6 20.4375 C5.01 21.7059375 5.01 21.7059375 4 23 C5.54476289 26.4757165 7.37716949 29.2361097 10 32 C13.02964706 33.06723573 13.02964706 33.06723573 16.4375 33.5 C27.59890869 35.5797656 37.1499742 39.83222326 47.02734375 45.3515625 C49.97951406 46.98863986 52.97117298 48.51041294 56 50 C59.00429249 48.28996745 61.64472939 46.5476437 64 44 C64.4649046 41.5688475 64.3249929 39.57023704 64.09375 37.11328125 C63.95649926 34.01942072 65.11378229 32.37523711 67 30 C67.391875 29.443125 67.78375 28.88625 68.1875 28.3125 C71.2113319 26.12282863 74.31881558 25.15720361 78 25 C82.26064986 26.15234658 85.19597864 27.98848925 87.9375 31.4375 C89.77964597 35.88032264 90.38268338 37.85194987 88.8125 42.5625 C86.0039032 47.8891491 86.0039032 47.8891491 83 50 C80.29730825 50.61212596 77.78245227 50.81450318 75 51 C74.87818359 52.56814453 74.87818359 52.56814453 74.75390625 54.16796875 C73.96455416 60.43199239 71.8650169 66.32327288 69.9375 72.3125 C69.12345633 74.88494396 68.31077953 77.45777947 67.5 80.03125 C67.29338242 80.684991 67.08676483 81.33873199 66.87388611 82.01228333 C64.64367433 89.08745851 62.5337909 96.19658438 60.4375 103.3125 C59.91820923 105.07364136 59.91820923 105.07364136 59.38842773 106.87036133 C58.59067801 109.57977312 57.79439815 112.28960399 57 115 C57.78890625 115.13148438 58.5778125 115.26296875 59.390625 115.3984375 C62 116 62 116 63.75 117.625 C66.36653916 122.5964244 66.39368634 128.48839122 66 134 C64.45456394 138.63630819 63.22594954 141.48997376 59 144 C56.50992775 144.38031673 56.50992775 144.38031673 53.66201782 144.38768005 C52.57976425 144.39758469 51.49751068 144.40748932 50.38246155 144.41769409 C49.20002365 144.41319244 48.01758575 144.4086908 46.79931641 144.40405273 C45.55015945 144.41091599 44.3010025 144.41777924 43.01399231 144.42485046 C39.59019815 144.44001933 36.16694826 144.4416113 32.74316072 144.43590808 C29.882894 144.43281712 27.02267653 144.4389078 24.16241682 144.44494683 C17.41259817 144.45899485 10.66290607 144.45742918 3.91308594 144.44604492 C-3.04434368 144.4345696 -10.00138757 144.44862854 -16.95876634 144.4754414 C-22.93683819 144.49761536 -28.91478911 144.5042318 -34.89289916 144.49836498 C-38.46122892 144.49499745 -42.02931157 144.49739627 -45.59760666 144.51461601 C-49.57873331 144.53298915 -53.55938776 144.51888045 -57.54052734 144.50170898 C-58.71891678 144.51137695 -59.89730621 144.52104492 -61.11140442 144.53100586 C-67.33918031 144.47470916 -71.31673066 144.29335673 -76 140 C-77.62062503 136.75874994 -77.26791352 133.24550138 -77.3125 129.6875 C-77.35600586 128.54764648 -77.35600586 128.54764648 -77.40039062 127.38476562 C-77.44400104 123.5235666 -77.25118048 121.43855997 -75.29296875 118.01953125 C-72.78150186 115.80755786 -71.29693493 115.27474458 -68 115 C-68.268125 114.21882813 -68.53625 113.43765625 -68.8125 112.6328125 C-72.78126421 100.9092919 -76.40625608 89.08385448 -80.01123047 77.24414062 C-80.95238909 74.1562108 -81.89963177 71.07020238 -82.84765625 67.984375 C-83.39884761 66.17720837 -83.94965244 64.36992378 -84.5 62.5625 C-84.75515381 61.73468018 -85.01030762 60.90686035 -85.27319336 60.05395508 C-86.21458816 56.94097494 -87 54.27157987 -87 51 C-88.03125 50.938125 -89.0625 50.87625 -90.125 50.8125 C-94.95205627 49.8003753 -96.55387071 48.44612929 -100 45 C-101.49142111 40.52573668 -101.74270548 36.68085977 -99.8125 32.3125 C-97.02076438 28.75063042 -94.48252075 26.52711849 -90.1875 25 C-85.72192424 25 -82.63274664 26.46029217 -79 29 C-76.19646667 32.43658925 -75.3738047 35.60779477 -75 40 C-75.33 41.32 -75.66 42.64 -76 44 C-73.03 45.98 -70.06 47.96 -67 50 C-65.205625 48.9790625 -65.205625 48.9790625 -63.375 47.9375 C-61.5864965 46.9525675 -59.79441917 45.97411326 -58 45 C-56.95972656 44.43410156 -55.91945312 43.86820313 -54.84765625 43.28515625 C-45.27110092 38.27199957 -35.0532663 33.80150753 -24.21875 32.5703125 C-21.04247908 32.26844692 -21.04247908 32.26844692 -19.15234375 30.546875 C-17.91680098 28.71938408 -16.82801862 27.04825658 -16 25 C-16.42776606 22.30535635 -16.42776606 22.30535635 -18 20 C-20.01917613 15.85537531 -20.18868817 13.48044004 -19 9 C-17.7133068 5.71893235 -16.57363042 3.53777852 -14 1.125 C-9.3470756 -0.61984665 -4.90357566 -0.65725638 0 0 Z M-12 8 C-14.31537595 10.81708195 -14.31537595 10.81708195 -13.8125 14 C-12.815307 17.68332312 -12.815307 17.68332312 -10 20 C-6.34371434 21.11278259 -4.68460779 21.31948363 -1.1875 19.6875 C1.08915626 18.18421412 1.08915626 18.18421412 2 16 C2.39116409 12.40129038 2.47841359 10.65560381 0.3125 7.6875 C-4.43736809 4.22138005 -7.34978916 4.48092153 -12 8 Z M-13.75 31.125 C-14.16773682 31.6627002 -14.58547363 32.20040039 -15.01586914 32.75439453 C-15.90576102 33.90295096 -16.78650526 35.05864429 -17.65869141 36.22070312 C-18.98120353 37.97506577 -20.3329904 39.7014028 -21.69921875 41.421875 C-24.00735227 44.32900939 -26.29580582 47.2507957 -28.578125 50.17822266 C-31.02400324 53.31200415 -33.48119163 56.43689214 -35.9375 59.5625 C-36.38601318 60.13403809 -36.83452637 60.70557617 -37.29663086 61.29443359 C-39.84762492 64.5432548 -42.41447633 67.77859348 -45 71 C-48.83866612 70.45000095 -51.17639461 69.45645801 -54.2578125 67.12109375 C-55.04373779 66.53279785 -55.82966309 65.94450195 -56.6394043 65.33837891 C-57.45965088 64.71108887 -58.27989746 64.08379883 -59.125 63.4375 C-60.82144127 62.16252978 -62.51805515 60.88778919 -64.21484375 59.61328125 C-65.44243408 58.68443115 -65.44243408 58.68443115 -66.69482422 57.73681641 C-69.66744215 55.49712101 -72.67220355 53.30686379 -75.6875 51.125 C-76.53699219 50.50882813 -77.38648438 49.89265625 -78.26171875 49.2578125 C-79.12216797 48.63519531 -79.12216797 48.63519531 -80 48 C-80.66 48.66 -81.32 49.32 -82 50 C-81.74420166 50.84256348 -81.48840332 51.68512695 -81.22485352 52.55322266 C-80.22929807 55.83329953 -79.23410302 59.11348523 -78.23922729 62.39376831 C-77.78888337 63.87859336 -77.33846453 65.36339569 -76.88796997 66.84817505 C-74.36612442 75.16127696 -71.85250344 83.47667715 -69.3671875 91.80078125 C-69.16038864 92.49286682 -68.95358978 93.18495239 -68.74052429 93.89801025 C-67.75181708 97.20751389 -66.76511564 100.51759458 -65.78149414 103.82861328 C-65.42949951 105.00794434 -65.07750488 106.18727539 -64.71484375 107.40234375 C-64.40667725 108.43866943 -64.09851074 109.47499512 -63.78100586 110.54272461 C-63.07929779 112.97080421 -63.07929779 112.97080421 -62 115 C-24.71 115 12.58 115 51 115 C53.31 107.08 55.62 99.16 58 91 C59.38275895 86.43241977 60.77047211 81.86915839 62.1875 77.3125 C62.50396484 76.28962891 62.82042969 75.26675781 63.14648438 74.21289062 C63.46294922 73.19001953 63.77941406 72.16714844 64.10546875 71.11328125 C64.4101709 70.12150879 64.71487305 69.12973633 65.02880859 68.10791016 C65.72089405 65.89316711 66.43452553 63.68510858 67.16259766 61.48193359 C67.53819824 60.3264502 67.91379883 59.1709668 68.30078125 57.98046875 C68.82345581 56.40688599 68.82345581 56.40688599 69.35668945 54.80151367 C69.99682643 52.01382038 69.98444142 50.64090386 69 48 C62.36644961 52.20124858 56.10399291 56.85915002 49.84960938 61.59667969 C48.54116349 62.58736014 47.23033229 63.57489903 45.91699219 64.55908203 C44.63374002 65.52364575 43.35833127 66.49872923 42.09082031 67.48388672 C38.69671897 70.05251803 37.38697012 71 33 71 C31.4296875 69.48828125 31.4296875 69.48828125 29.875 67.3125 C29.27171875 66.49007812 28.6684375 65.66765625 28.046875 64.8203125 C27.37140625 63.88960937 26.6959375 62.95890625 26 62 C24.37993096 59.89176446 22.75523515 57.78781449 21.125 55.6875 C18.5211669 52.31918389 15.94219615 48.93715798 13.4296875 45.5 C13.02089355 44.94352783 12.61209961 44.38705566 12.19091797 43.8137207 C11.05961479 42.2689051 9.93584257 40.71858269 8.8125 39.16796875 C8.214375 38.45253906 7.61625 37.73710938 7 37 C6.34 37 5.68 37 5 37 C4.773125 36.484375 4.54625 35.96875 4.3125 35.4375 C3.18347681 33.34074265 2.06217629 31.2766132 0.8125 29.25 C0.26529297 28.32960938 0.26529297 28.32960938 -0.29296875 27.390625 C-2.07918223 25.69625182 -2.07918223 25.69625182 -5.37890625 25.4765625 C-10.02406605 26.14803112 -10.9515852 27.42916253 -13.75 31.125 Z M70 35 C69.51253392 38.34262452 69.68434799 40.29442492 71.0625 43.375 C73.02887707 45.30499938 73.02887707 45.30499938 76.4375 45.5625 C80.09450017 45.30948169 80.09450017 45.30948169 82.5 42.8125 C84.20098039 40.15441176 84.20098039 40.15441176 84 37.4375 C82.77405298 34.44925415 81.58674284 32.94005713 79 31 C74.58350134 30.11670027 72.56453605 31.39065297 70 35 Z M-94 34 C-95.24838381 37.40528996 -95.24838381 37.40528996 -95 41 C-93.58333333 43.58333333 -93.58333333 43.58333333 -91 45 C-87.82625484 45.45339217 -85.94344924 45.58558918 -83.1875 43.875 C-81.5004104 41.21117432 -81.12822117 39.14141856 -81 36 C-82.40315305 33.11574095 -83.39528669 32.23870262 -86.375 31.0625 C-89.919832 30.97809924 -91.35022123 31.64464109 -94 34 Z M-28 39 C-40.31471681 42.63455184 -51.05088694 47.2873285 -62 54 C-59.17015973 56.9746228 -56.23934977 59.39997658 -52.875 61.75 C-52.00617188 62.36359375 -51.13734375 62.9771875 -50.2421875 63.609375 C-48.15646174 65.17568933 -48.15646174 65.17568933 -46 65 C-44.6022488 63.30100931 -43.28309174 61.5371635 -42 59.75 C-37.2723968 53.25801405 -32.1981164 47.12053789 -27 41 C-27.495 40.01 -27.495 40.01 -28 39 Z M16 40 C18.94566696 44.55049967 22.12717716 48.82119825 25.5 53.0625 C25.97308594 53.66126953 26.44617188 54.26003906 26.93359375 54.87695312 C29.60992188 58.26128495 32.30153834 61.63328722 35 65 C39.10110762 63.59601721 41.98089159 61.62912962 45.3125 58.875 C46.19550781 58.15054688 47.07851562 57.42609375 47.98828125 56.6796875 C48.65214844 56.12539062 49.31601563 55.57109375 50 55 C46.15109104 51.71667499 42.19996812 49.27994344 37.75 46.9375 C37.08758301 46.58751953 36.42516602 46.23753906 35.74267578 45.87695312 C26.36190119 40.98210433 26.36190119 40.98210433 16 40 Z M-71 122 C-71.32057871 125.28764015 -71.32057871 125.28764015 -71.25 129 C-71.25515625 130.258125 -71.2603125 131.51625 -71.265625 132.8125 C-71.33780455 136.09282361 -71.33780455 136.09282361 -69 138 C-66.68144825 138.30717217 -66.68144825 138.30717217 -63.95153809 138.26069641 C-62.34885323 138.27132362 -62.34885323 138.27132362 -60.71379089 138.28216553 C-58.94797417 138.2784494 -58.94797417 138.2784494 -57.14648438 138.2746582 C-55.91070145 138.27976913 -54.67491852 138.28488007 -53.40168762 138.29014587 C-50.00707161 138.30168821 -46.61269925 138.30411173 -43.21808052 138.30158257 C-40.38737063 138.30051479 -37.55668342 138.30539119 -34.72597837 138.310188 C-28.05021191 138.32129202 -21.37450171 138.32171537 -14.69873047 138.31567383 C-7.80381306 138.3096301 -0.90909952 138.32195299 5.9857831 138.3432439 C11.8991948 138.36083499 17.81254146 138.36686528 23.72597837 138.36360615 C27.26063801 138.36178938 30.79515218 138.36446851 34.32978821 138.37832069 C38.26876901 138.39317934 42.20748822 138.38395077 46.14648438 138.37231445 C47.9123011 138.38378006 47.9123011 138.38378006 49.71379089 138.39547729 C50.78224747 138.38846298 51.85070404 138.38144867 52.95153809 138.3742218 C53.88363853 138.37438954 54.81573898 138.37455729 55.7760849 138.37473011 C56.50997688 138.25106917 57.24386887 138.12740824 58 138 C60.29783606 134.55324591 60.29754883 133.06671888 60.3125 129 C60.33763672 127.4221875 60.33763672 127.4221875 60.36328125 125.8125 C60.23441387 123.04445947 60.23441387 123.04445947 58.79796696 121.34760761 C56.38564573 119.53953075 54.86977813 119.62523337 51.86924744 119.6257782 C50.80783035 119.61876389 49.74641327 119.61174957 48.65283203 119.60452271 C47.48856689 119.61216644 46.32430176 119.61981018 45.12475586 119.62768555 C43.89858047 119.62403488 42.67240509 119.62038422 41.40907288 119.61662292 C38.04538521 119.60989917 34.68224932 119.61664018 31.31861567 119.62995505 C27.80148567 119.64126274 24.28437013 119.63716264 20.76722717 119.63520813 C14.8616154 119.63432505 8.9561184 119.64540931 3.05053711 119.66381836 C-3.78245284 119.68499604 -10.61527476 119.68849389 -17.44829088 119.6822564 C-24.01625929 119.67656729 -30.58416837 119.6822024 -37.15212822 119.69342995 C-39.94994641 119.69808096 -42.74772838 119.69894764 -45.54554939 119.6968441 C-49.44848037 119.69461556 -53.35125061 119.70905049 -57.25415039 119.7253418 C-59.00358444 119.72162567 -59.00358444 119.72162567 -60.7883606 119.71783447 C-61.84695786 119.72491928 -62.90555511 119.73200409 -63.99623108 119.73930359 C-65.38137201 119.74238289 -65.38137201 119.74238289 -66.79449558 119.74552441 C-69.20665197 119.7923875 -69.20665197 119.7923875 -71 122 Z " fill="#FCFCFC" transform="translate(122,51)"/>
<path d="M0 0 C2.51248532 0.38150168 3.75371386 0.75202671 5.56811523 2.57885742 C6.05997314 3.24763916 6.55183105 3.9164209 7.05859375 4.60546875 C7.88520508 5.71051758 7.88520508 5.71051758 8.72851562 6.83789062 C9.29248047 7.61326172 9.85644531 8.38863281 10.4375 9.1875 C11.56001428 10.70270051 12.68369377 12.21703856 13.80859375 13.73046875 C14.34339355 14.46313965 14.87819336 15.19581055 15.42919922 15.95068359 C16.85475898 17.81051396 18.36636736 19.47405827 19.97265625 21.17578125 C22 24 22 24 21.83349609 26.76586914 C20.89523112 30.40652413 19.49524492 33.27212311 17.69140625 36.5703125 C17.36462387 37.17382538 17.03784149 37.77733826 16.70115662 38.3991394 C15.66301124 40.31228883 14.61312327 42.21867966 13.5625 44.125 C12.86051759 45.41231876 12.15933788 46.70007558 11.45898438 47.98828125 C10.17372301 50.35197371 8.88302312 52.71233334 7.58813477 55.07080078 C6.01193993 57.85660387 6.01193993 57.85660387 5.03491211 60.33154297 C4 62 4 62 1.875 62.75 C1.25625 62.8325 0.6375 62.915 0 63 C-3.74040423 57.15809658 -7.21031178 51.19706355 -10.5625 45.125 C-11.26536133 43.87396484 -11.26536133 43.87396484 -11.98242188 42.59765625 C-13.36944064 40.08744327 -14.68967402 37.55095116 -16 35 C-16.47332764 34.15614746 -16.94665527 33.31229492 -17.43432617 32.44287109 C-18.71113121 29.89024374 -19.59928306 27.82821952 -20 25 C-18.7649592 21.5131375 -16.64080232 19.10032652 -14.1875 16.375 C-13.60806641 15.67632812 -13.02863281 14.97765625 -12.43164062 14.2578125 C-10.65800576 12.13652163 -8.83728635 10.06628426 -7 8 C-5.68288381 6.49280762 -4.36644977 4.98501876 -3.05078125 3.4765625 C-2.03426384 2.31734896 -1.01749527 1.15835532 0 0 Z M1 8 C-1.7970712 10.88385384 -4.39160887 13.94581111 -7 17 C-7.62648438 17.72703125 -8.25296875 18.4540625 -8.8984375 19.203125 C-9.72214844 20.21632813 -9.72214844 20.21632813 -10.5625 21.25 C-11.05878906 21.85328125 -11.55507812 22.4565625 -12.06640625 23.078125 C-13.36112046 25.74339442 -12.74372365 27.16731477 -12 30 C-11.0409827 32.16623889 -11.0409827 32.16623889 -9.8203125 34.25 C-9.38589844 35.0234375 -8.95148438 35.796875 -8.50390625 36.59375 C-8.04886719 37.3878125 -7.59382813 38.181875 -7.125 39 C-6.67769531 39.7940625 -6.23039062 40.588125 -5.76953125 41.40625 C-3.56719955 45.30418221 -1.32851089 49.17569072 1 53 C4.64263665 48.31612549 7.46320015 43.22006732 10.375 38.0625 C11.25091797 36.5784668 11.25091797 36.5784668 12.14453125 35.06445312 C12.68207031 34.10603516 13.21960938 33.14761719 13.7734375 32.16015625 C14.27278809 31.29011963 14.77213867 30.42008301 15.28662109 29.52368164 C16.31215959 26.93823875 16.31215959 26.93823875 14.80566406 24.39941406 C14.20979492 23.60760742 13.61392578 22.81580078 13 22 C12.55962402 21.38858154 12.11924805 20.77716309 11.66552734 20.1472168 C10.23848738 18.32476675 8.81092095 16.50296776 7.375 14.6875 C6.62089844 13.71973633 6.62089844 13.71973633 5.8515625 12.73242188 C4.59341411 11.13437049 3.29977238 9.56438402 2 8 C1.67 8 1.34 8 1 8 Z " fill="#FCFCFC" transform="translate(115,100)"/>
<path d="M0 0 C1.62463842 -0.05395478 3.24978541 -0.09277195 4.875 -0.125 C5.77992187 -0.14820313 6.68484375 -0.17140625 7.6171875 -0.1953125 C10 0 10 0 12 2 C12.45847689 4.36030696 12.82143131 6.7398174 13.125 9.125 C13.29257813 10.40632812 13.46015625 11.68765625 13.6328125 13.0078125 C13.81457031 14.48894531 13.81457031 14.48894531 14 16 C17.4780065 13.17349328 20.79539123 10.41979293 23.5625 6.875 C26.19345722 3.77181969 28.39036851 1.87700837 32 0 C35.875 -0.25 35.875 -0.25 39 0 C38.67 0.99 38.34 1.98 38 3 C36.02 3.33 34.04 3.66 32 4 C32 4.66 32 5.32 32 6 C30.42578125 7.515625 30.42578125 7.515625 28.3125 9.25 C24.71484826 12.20400407 21.91263183 15.38854056 19 19 C21.86244416 21.94996009 24.74203476 24.88260277 27.625 27.8125 C28.43324219 28.64587891 29.24148437 29.47925781 30.07421875 30.33789062 C34.12627845 34.43936569 37.57326952 37.91887521 43 40 C42.67 40.99 42.34 41.98 42 43 C36.72670394 43.31639776 33.48803782 42.82941515 29 40 C27.30959729 38.35741234 25.64593481 36.68714378 24 35 C23.11699219 34.11699219 22.23398438 33.23398438 21.32421875 32.32421875 C18.8828125 29.8828125 16.44140625 27.44140625 14 25 C13.67 30.61 13.34 36.22 13 42 C10.69 42 8.38 42 6 42 C5.67 29.13 5.34 16.26 5 3 C3.35 3 1.7 3 0 3 C0 2.01 0 1.02 0 0 Z " fill="#FCFCFC" transform="translate(79,206)"/>
<path d="M0 0 C4.58769231 2.67615385 4.58769231 2.67615385 6 5.75 C6.22970086 8.46986695 6.13699756 11.01004872 6 13.75 C5.34 13.75 4.68 13.75 4 13.75 C3.731875 13.12351563 3.46375 12.49703125 3.1875 11.8515625 C0.96782799 7.07419865 0.96782799 7.07419865 -2.83203125 3.6015625 C-7.35848647 2.22666289 -11.01346417 2.8027274 -15.3046875 4.6875 C-17.79684783 6.24940693 -18.8413929 8.09201899 -20 10.75 C-20.33 11.41 -20.66 12.07 -21 12.75 C-21.94233261 23.18069383 -21.94233261 23.18069383 -19.4375 33.0625 C-16.36912718 36.44557772 -14.46120213 37.6706769 -10 38.75 C-4.85237996 38.55170955 -1.13240779 37.96951608 2.4375 34.125 C2.953125 33.34125 3.46875 32.5575 4 31.75 C4.99 31.75 5.98 31.75 7 31.75 C6.22589982 36.23581132 4.13689278 38.4369925 0.71875 41.31640625 C-4.73986137 44.19472575 -11.04823964 43.80679405 -17 42.75 C-22.95850655 39.45958822 -27.59845915 34.75440243 -29.875 28.25 C-29.91625 27.425 -29.9575 26.6 -30 25.75 C-30.12375 23.89375 -30.12375 23.89375 -30.25 22 C-30.11135426 14.63791109 -27.65978284 8.52513147 -22.5859375 3.19140625 C-16.42047009 -2.41218359 -7.66494815 -2.9618271 0 0 Z " fill="#FCFCFC" transform="translate(150,206.25)"/>
<path d="M0 0 C3.29098541 1.35617531 4.61395119 2.48929751 6.140625 5.6953125 C6.48867187 6.41074219 6.83671875 7.12617188 7.1953125 7.86328125 C7.54335937 8.60964844 7.89140625 9.35601562 8.25 10.125 C8.61351562 10.87910156 8.97703125 11.63320312 9.3515625 12.41015625 C10.24531269 14.26821586 11.12412375 16.13344818 12 18 C9.74376669 21.46282764 7.48129421 24.77125658 4.75 27.875 C4.22921875 28.47054687 3.7084375 29.06609375 3.171875 29.6796875 C2.78515625 30.11539063 2.3984375 30.55109375 2 31 C-1.07349785 30.68708732 -2.02268214 29.97647629 -4.2109375 27.70703125 C-4.92507812 26.75183594 -5.63921875 25.79664063 -6.375 24.8125 C-7.10460937 23.87019531 -7.83421875 22.92789063 -8.5859375 21.95703125 C-10 19 -10 19 -9.4140625 15.99609375 C-8.0141146 13.02990579 -6.58631993 10.12123907 -5 7.25 C-4.484375 6.30640625 -3.96875 5.3628125 -3.4375 4.390625 C-2 2 -2 2 0 0 Z M0 10 C-1.32 12.64 -2.64 15.28 -4 18 C-2.35 19.65 -0.7 21.3 1 23 C2.32 21.35 3.64 19.7 5 18 C3.7191375 14.35446828 2.83328987 12.83328987 0 10 Z " fill="#FCFCFC" transform="translate(154,132)"/>
<path d="M0 0 C3.0470823 2.14591194 4.34003016 5.03205543 5.92578125 8.30078125 C6.24998047 8.91759766 6.57417969 9.53441406 6.90820312 10.16992188 C8.31178459 12.9981235 9.14186534 15.05206316 8.93359375 18.23046875 C7.79019817 21.37752898 6.14504839 23.8408271 4.11328125 26.48828125 C3.45328125 26.48828125 2.79328125 26.48828125 2.11328125 26.48828125 C1.78328125 27.47828125 1.45328125 28.46828125 1.11328125 29.48828125 C0.12328125 29.81828125 -0.86671875 30.14828125 -1.88671875 30.48828125 C-4.72886986 27.80853877 -7.35501491 25.06913182 -9.76171875 21.98828125 C-10.19226563 21.44171875 -10.6228125 20.89515625 -11.06640625 20.33203125 C-12.26024174 17.64874386 -11.76137726 16.27751483 -10.88671875 13.48828125 C-9.80756119 11.20555197 -8.65601642 8.95617967 -7.44921875 6.73828125 C-6.83175781 5.5884375 -6.21429688 4.43859375 -5.578125 3.25390625 C-3.07760032 -0.83471147 -3.07760032 -0.83471147 0 0 Z M-1.88671875 9.48828125 C-3.20671875 12.12828125 -4.52671875 14.76828125 -5.88671875 17.48828125 C-4.23671875 19.13828125 -2.58671875 20.78828125 -0.88671875 22.48828125 C0.43328125 20.83828125 1.75328125 19.18828125 3.11328125 17.48828125 C1.83241875 13.84274953 0.94657112 12.32157112 -1.88671875 9.48828125 Z " fill="#FDFDFD" transform="translate(78.88671875,132.51171875)"/>
<path d="M0 0 C4.455 1.98 4.455 1.98 9 4 C6 7 6 7 3.9375 7.0625 C2 6 2 6 0.75 2.9375 C0.5025 1.968125 0.255 0.99875 0 0 Z " fill="#F6F6F6" transform="translate(132,242)"/>
<path d="M0 0 C0.66 0.33 1.32 0.66 2 1 C1.67 2.32 1.34 3.64 1 5 C-0.65 5 -2.3 5 -4 5 C-4.33 4.01 -4.66 3.02 -5 2 C-3.35 2 -1.7 2 0 2 C0 1.34 0 0.68 0 0 Z " fill="#F4F4F4" transform="translate(90,219)"/>
<path d="M0 0 C1.65 0.33 3.3 0.66 5 1 C3.515 3.475 3.515 3.475 2 6 C1.01 5.67 0.02 5.34 -1 5 C-0.67 3.35 -0.34 1.7 0 0 Z " fill="#F6F6F6" transform="translate(179,101)"/>
<path d="M0 0 C0.99 0.33 1.98 0.66 3 1 C1.71937515 2.7074998 0.38232443 4.37373596 -1 6 C-1.66 6 -2.32 6 -3 6 C-3.33 5.01 -3.66 4.02 -4 3 C-3.01 2.67 -2.02 2.34 -1 2 C-0.67 1.34 -0.34 0.68 0 0 Z " fill="#F5F5F5" transform="translate(92,99)"/>
<path d="" fill="#EDEDED" transform="translate(0,0)"/>
<path d="M0 0 C2 1 2 1 2 1 Z " fill="#FFFFFF" transform="translate(115,150)"/>
</svg>
